# Rhino

mtllib gun-01.mtl
usemtl diffuse_0
v -2043.4632568359375 1103.0364990234375 2347.53271484375
v -1957.36474609375 1103.0364990234375 900.998779296875
v -2336.76220703125 868.96502685546875 2330.0751953125
v -2250.66357421875 868.96502685546875 883.54144287109375
v -2520.748291015625 959.75189208984375 2319.124267578125
v -2434.649658203125 959.75189208984375 872.59051513671875
v -2583.245849609375 1147.494384765625 2315.404541015625
v -2497.147216796875 1147.494384765625 868.87060546875
v -2289.94677734375 1381.56591796875 2332.86181640625
v -2203.848388671875 1381.56591796875 886.32794189453125
v -2105.9609375 1290.779052734375 2343.812744140625
v -2019.8623046875 1290.779052734375 897.27886962890625
v -2043.4632568359375 1103.0364990234375 2347.53271484375
v -1957.36474609375 1103.0364990234375 900.998779296875
v -2043.4632568359375 1103.0364990234375 2347.53271484375
v -2336.76220703125 868.96502685546875 2330.0751953125
v -2520.748291015625 959.75189208984375 2319.124267578125
v -2583.245849609375 1147.494384765625 2315.404541015625
v -2289.94677734375 1381.56591796875 2332.86181640625
v -2105.9609375 1290.779052734375 2343.812744140625
v -1957.36474609375 1103.0364990234375 900.998779296875
v -2250.66357421875 868.96502685546875 883.54144287109375
v -2434.649658203125 959.75189208984375 872.59051513671875
v -2497.147216796875 1147.494384765625 868.87060546875
v -2203.848388671875 1381.56591796875 886.32794189453125
v -2019.8623046875 1290.779052734375 897.27886962890625
vt 0 0
vt 0 0.79232305288314819
vt 0.25 0
vt 0.25 0.79232305288314819
vt 0.375 0
vt 0.375 0.79232305288314819
vt 0.5 0
vt 0.5 0.79232305288314819
vt 0.75 0
vt 0.75 0.79232305288314819
vt 0.875 0
vt 0.875 0.79232305288314819
vt 1 0
vt 1 0.79232305288314819
vt 0.34821820259094238 0.89716929197311401
vt 0.17410910129547119 0.79232388734817505
vt 0.050995375961065292 0.82202500104904175
vt 0 0.89515453577041626
vt 0.17410910129547119 1
vt 0.29722282290458679 0.9702988862991333
vt 0.34821820259094238 0.89515453577041626
vt 0.17410910129547119 1
vt 0.050995375961065292 0.9702988862991333
vt 0 0.89716929197311401
vt 0.17410910129547119 0.79232388734817505
vt 0.29722282290458679 0.82202500104904175
vn 0.99408149719238281 -0.091110087931156158 0.059168301522731781
vn 0.99408149719238281 -0.091110087931156158 0.059168301522731781
vn -0.081795774400234222 -0.99663722515106201 -0.0048685311339795589
vn -0.081795774400234222 -0.99663722515106201 -0.0048685311339795589
vn -0.74696958065032959 -0.66337001323699951 -0.044460058212280273
vn -0.74696958065032959 -0.66337001323699951 -0.044460058212280273
vn -0.99408149719238281 0.091110087931156158 -0.059168301522731781
vn -0.99408149719238281 0.091110087931156158 -0.059168301522731781
vn 0.081795774400234222 0.99663722515106201 0.0048685311339795589
vn 0.081795774400234222 0.99663722515106201 0.0048685311339795589
vn 0.74696958065032959 0.66337001323699951 0.044460058212280273
vn 0.74696958065032959 0.66337001323699951 0.044460058212280273
vn 0.99408149719238281 -0.091110087931156158 0.059168301522731781
vn 0.99408149719238281 -0.091110087931156158 0.059168301522731781
vn -0.059415422379970551 0 0.99823331832885742
vn -0.059415422379970551 0 0.99823331832885742
vn -0.059415422379970551 0 0.99823331832885742
vn -0.059415422379970551 0 0.99823331832885742
vn -0.059415422379970551 0 0.99823331832885742
vn -0.059415422379970551 0 0.99823331832885742
vn 0.059415422379970551 0 -0.99823331832885742
vn 0.059415422379970551 0 -0.99823331832885742
vn 0.059415422379970551 0 -0.99823331832885742
vn 0.059415422379970551 0 -0.99823331832885742
vn 0.059415422379970551 0 -0.99823331832885742
vn 0.059415422379970551 0 -0.99823331832885742
f 1/1/1 3/3/3 4/4/4 2/2/2
f 3/3/3 5/5/5 6/6/6 4/4/4
f 5/5/5 7/7/7 8/8/8 6/6/6
f 7/7/7 9/9/9 10/10/10 8/8/8
f 9/9/9 11/11/11 12/12/12 10/10/10
f 11/11/11 13/13/13 14/14/14 12/12/12
f 17/17/17 19/19/19 18/18/18
f 16/16/16 19/19/19 17/17/17
f 15/15/15 20/20/20 16/16/16
f 19/19/19 16/16/16 20/20/20
f 23/23/23 24/24/24 25/25/25
f 22/22/22 23/23/23 25/25/25
f 21/21/21 22/22/22 26/26/26
f 25/25/25 26/26/26 22/22/22
