# Rhino

mtllib twisted-arm gun.mtl
usemtl diffuse_0
v -1809.87744140625 1244.5242919921875 -1117.8590087890625
v -1803.62451171875 1244.5242919921875 -1222.9149169921875
v -1805.0389404296875 944.52435302734375 -1199.1497802734375
v -1798.7860107421875 944.52435302734375 -1304.205810546875
v -1805.0389404296875 944.52435302734375 -1199.1497802734375
v -1798.7860107421875 944.52435302734375 -1304.205810546875
v -2099.67041015625 944.52435302734375 -1298.265380859375
v -2093.41748046875 944.52435302734375 -1403.3212890625
v -2099.67041015625 944.52435302734375 -1298.265380859375
v -2093.41748046875 944.52435302734375 -1403.3212890625
v -2094.83203125 1244.5242919921875 -1379.55615234375
v -2088.5791015625 1244.5242919921875 -1484.6121826171875
v -2094.83203125 1244.5242919921875 -1379.55615234375
v -2088.5791015625 1244.5242919921875 -1484.6121826171875
v -1790.5235595703125 1244.5242919921875 -1443.0224609375
v -1784.2705078125 1244.5242919921875 -1548.0784912109375
v -1790.5235595703125 1244.5242919921875 -1443.0224609375
v -1784.2705078125 1244.5242919921875 -1548.0784912109375
v -1788.1370849609375 1094.540283203125 -1483.116455078125
v -1781.8841552734375 1094.540283203125 -1588.1724853515625
v -1785.750244140625 944.52435302734375 -1523.218994140625
v -1779.4971923828125 944.52435302734375 -1628.2750244140625
v -1785.750244140625 944.52435302734375 -1523.218994140625
v -1779.4971923828125 944.52435302734375 -1628.2750244140625
v -1933.0498046875 944.52435302734375 -1573.32958984375
v -1926.7967529296875 944.52435302734375 -1678.385498046875
v -2080.316650390625 944.52435302734375 -1623.4288330078125
v -2074.0634765625 944.52435302734375 -1728.48486328125
v -2080.316650390625 944.52435302734375 -1623.4288330078125
v -2074.0634765625 944.52435302734375 -1728.48486328125
v -2075.47802734375 1244.5242919921875 -1704.7197265625
v -2069.22509765625 1244.5242919921875 -1809.7757568359375
v -2075.47802734375 1244.5242919921875 -1704.7197265625
v -2069.22509765625 1244.5242919921875 -1809.7757568359375
v -1771.169677734375 1244.5242919921875 -1768.18603515625
v -1768.0430908203125 1244.5242919921875 -1820.7139892578125
v -1764.9166259765625 1244.5242919921875 -1873.241943359375
v -1848.5853271484375 1244.5242919921875 -467.53192138671875
v -1842.332275390625 1244.5242919921875 -572.587890625
v -1843.746826171875 944.52435302734375 -548.82281494140625
v -1837.4937744140625 944.52435302734375 -653.8787841796875
v -1843.746826171875 944.52435302734375 -548.82281494140625
v -1837.4937744140625 944.52435302734375 -653.8787841796875
v -1991.062744140625 944.52435302734375 -598.380615234375
v -1984.8096923828125 944.52435302734375 -703.43658447265625
v -2138.37841796875 944.52435302734375 -647.93829345703125
v -2132.125244140625 944.52435302734375 -752.9942626953125
v -2138.37841796875 944.52435302734375 -647.93829345703125
v -2132.125244140625 944.52435302734375 -752.9942626953125
v -2135.958984375 1094.5245361328125 -688.58380126953125
v -2129.7060546875 1094.5245361328125 -793.6397705078125
v -2133.539794921875 1244.5242919921875 -729.22918701171875
v -2127.286865234375 1244.5242919921875 -834.28515625
v -2133.539794921875 1244.5242919921875 -729.22918701171875
v -2127.286865234375 1244.5242919921875 -834.28515625
v -1829.2313232421875 1244.5242919921875 -792.6954345703125
v -1822.9783935546875 1244.5242919921875 -897.75140380859375
v -1829.2313232421875 1244.5242919921875 -792.6954345703125
v -1822.9783935546875 1244.5242919921875 -897.75140380859375
v -1824.4580078125 944.52435302734375 -872.8919677734375
v -1818.205078125 944.52435302734375 -977.947998046875
v -1824.4580078125 944.52435302734375 -872.8919677734375
v -1818.205078125 944.52435302734375 -977.947998046875
v -2119.0244140625 944.52435302734375 -973.101806640625
v -2112.771484375 944.52435302734375 -1078.1578369140625
v -2119.0244140625 944.52435302734375 -973.101806640625
v -2112.771484375 944.52435302734375 -1078.1578369140625
v -2114.18603515625 1244.5242919921875 -1054.3927001953125
v -2107.932861328125 1244.5242919921875 -1159.44873046875
v -2114.18603515625 1244.5242919921875 -1054.3927001953125
v -2107.932861328125 1244.5242919921875 -1159.44873046875
v -1809.87744140625 1244.5242919921875 -1117.8590087890625
v -1803.62451171875 1244.5242919921875 -1222.9149169921875
v -1887.2930908203125 1244.5242919921875 182.79512023925781
v -1881.0401611328125 1244.5242919921875 77.739128112792969
v -1882.4547119140625 944.52435302734375 101.50423431396484
v -1876.20166015625 944.52435302734375 -3.5517513751983643
v -1882.4547119140625 944.52435302734375 101.50423431396484
v -1876.20166015625 944.52435302734375 -3.5517513751983643
v -2029.7706298828125 944.52435302734375 51.946430206298828
v -2023.517578125 944.52435302734375 -53.10955810546875
v -2177.086181640625 944.52435302734375 2.3887290954589844
v -2170.833251953125 944.52435302734375 -102.66725921630859
v -2177.086181640625 944.52435302734375 2.3887290954589844
v -2170.833251953125 944.52435302734375 -102.66725921630859
v -2172.247802734375 1244.5242919921875 -78.902153015136719
v -2165.99462890625 1244.5242919921875 -183.9581298828125
v -2172.247802734375 1244.5242919921875 -78.902153015136719
v -2165.99462890625 1244.5242919921875 -183.9581298828125
v -2020.09326171875 1244.5242919921875 -110.63530731201172
v -2013.84033203125 1244.5242919921875 -215.69129943847656
v -1867.939208984375 1244.5242919921875 -142.368408203125
v -1861.686279296875 1244.5242919921875 -247.42439270019531
v -1867.939208984375 1244.5242919921875 -142.368408203125
v -1861.686279296875 1244.5242919921875 -247.42439270019531
v -1863.1658935546875 944.52435302734375 -222.56495666503906
v -1856.912841796875 944.52435302734375 -327.62094116210938
v -1863.1658935546875 944.52435302734375 -222.56495666503906
v -1856.912841796875 944.52435302734375 -327.62094116210938
v -2010.4654541015625 944.52435302734375 -272.67547607421875
v -2004.21240234375 944.52435302734375 -377.7314453125
v -2157.732177734375 944.52435302734375 -322.7747802734375
v -2151.479248046875 944.52435302734375 -427.83078002929688
v -2157.732177734375 944.52435302734375 -322.7747802734375
v -2151.479248046875 944.52435302734375 -427.83078002929688
v -2152.893798828125 1244.5242919921875 -404.065673828125
v -2146.640869140625 1244.5242919921875 -509.12164306640625
v -2152.893798828125 1244.5242919921875 -404.065673828125
v -2146.640869140625 1244.5242919921875 -509.12164306640625
v -2000.7393798828125 1244.5242919921875 -435.798828125
v -1994.486328125 1244.5242919921875 -540.85479736328125
v -1848.5853271484375 1244.5242919921875 -467.53192138671875
v -1842.332275390625 1244.5242919921875 -572.587890625
v -1926.0009765625 1244.5242919921875 833.12213134765625
v -1922.87451171875 1244.5242919921875 780.59417724609375
v -1919.7479248046875 1244.5242919921875 728.066162109375
v -1921.1624755859375 944.52435302734375 751.83123779296875
v -1914.9095458984375 944.52435302734375 646.7752685546875
v -1921.1624755859375 944.52435302734375 751.83123779296875
v -1914.9095458984375 944.52435302734375 646.7752685546875
v -2068.478515625 944.52435302734375 702.2734375
v -2062.225341796875 944.52435302734375 597.21746826171875
v -2215.7939453125 944.52435302734375 652.71575927734375
v -2209.541015625 944.52435302734375 547.6597900390625
v -2215.7939453125 944.52435302734375 652.71575927734375
v -2209.541015625 944.52435302734375 547.6597900390625
v -2210.95556640625 1244.5242919921875 571.42486572265625
v -2204.70263671875 1244.5242919921875 466.368896484375
v -2210.95556640625 1244.5242919921875 571.42486572265625
v -2204.70263671875 1244.5242919921875 466.368896484375
v -1906.6470947265625 1244.5242919921875 507.9586181640625
v -1900.39404296875 1244.5242919921875 402.90264892578125
v -1906.6470947265625 1244.5242919921875 507.9586181640625
v -1900.39404296875 1244.5242919921875 402.90264892578125
v -1901.8736572265625 944.52435302734375 427.7620849609375
v -1895.6207275390625 944.52435302734375 322.70608520507813
v -1901.8736572265625 944.52435302734375 427.7620849609375
v -1895.6207275390625 944.52435302734375 322.70608520507813
v -2049.17333984375 944.52435302734375 377.65155029296875
v -2042.9202880859375 944.52435302734375 272.5955810546875
v -2196.440185546875 944.52435302734375 327.55224609375
v -2190.18701171875 944.52435302734375 222.49626159667969
v -2196.440185546875 944.52435302734375 327.55224609375
v -2190.18701171875 944.52435302734375 222.49626159667969
v -2194.020751953125 1094.5245361328125 286.90676879882813
v -2187.767822265625 1094.5245361328125 181.85078430175781
v -2191.6015625 1244.5242919921875 246.26136779785156
v -2185.3486328125 1244.5242919921875 141.20538330078125
v -2191.6015625 1244.5242919921875 246.26136779785156
v -2185.3486328125 1244.5242919921875 141.20538330078125
v -1887.2930908203125 1244.5242919921875 182.79512023925781
v -1881.0401611328125 1244.5242919921875 77.739128112792969
vt 0.83186846971511841 0.41281089186668396
vt 0.75 0.41281089186668396
vt 0.83186846971511841 0.65895509719848633
vt 0.75 0.65895509719848633
vt 0.83186846971511841 0
vt 0.75 0
vt 0.83186846971511841 0.24614422023296356
vt 0.75 0.24614422023296356
vt 0.74853515625 0
vt 0.66666668653488159 0
vt 0.74853515625 0.24614422023296356
vt 0.66666668653488159 0.24614422023296356
vt 0.91520184278488159 0
vt 0.83333331346511841 0
vt 0.91520184278488159 0.24614422023296356
vt 0.83333331346511841 0.24614422023296356
vt 0.081868492066860199 0.3333333432674408
vt 0 0.3333333432674408
vt 0.081868492066860199 0.45560345053672791
vt 0 0.45560345053672791
vt 0.081868492066860199 0.57789981365203857
vt 0 0.57789981365203857
vt 0.33317828178405762 0
vt 0.33317828178405762 0.081868492066860199
vt 0.45637854933738708 0
vt 0.45637854933738708 0.081868492066860199
vt 0.57955163717269897 0
vt 0.57955163717269897 0.081868492066860199
vt 0.3318684995174408 0.57936465740203857
vt 0.25 0.57936465740203857
vt 0.3318684995174408 0.82415693998336792
vt 0.25 0.82415693998336792
vt 0 0.083333335816860199
vt 0 0.1652018278837204
vt 0.24614422023296356 0.083333335816860199
vt 0.24614422023296356 0.124267578125
vt 0.24614422023296356 0.1652018278837204
vt 0.99853515625 0.41281089186668396
vt 0.91666668653488159 0.41281089186668396
vt 0.99853515625 0.65895509719848633
vt 0.91666668653488159 0.65895509719848633
vt 0.91520184278488159 0.41281089186668396
vt 0.83333331346511841 0.41281089186668396
vt 0.91520184278488159 0.53588306903839111
vt 0.83333331346511841 0.53588306903839111
vt 0.91520184278488159 0.65895509719848633
vt 0.83333331346511841 0.65895509719848633
vt 0.4152018129825592 0.57947754859924316
vt 0.3333333432674408 0.57947754859924316
vt 0.4152018129825592 0.70181727409362793
vt 0.3333333432674408 0.70181727409362793
vt 0.4152018129825592 0.82415693998336792
vt 0.3333333432674408 0.82415693998336792
vt 0.58186846971511841 0.57947754859924316
vt 0.5 0.57947754859924316
vt 0.58186846971511841 0.82415693998336792
vt 0.5 0.82415693998336792
vt 0.3318684995174408 0.3333333432674408
vt 0.25 0.3333333432674408
vt 0.3318684995174408 0.57789981365203857
vt 0.25 0.57789981365203857
vt 0.33317828178405762 0.083333335816860199
vt 0.33317828178405762 0.1652018278837204
vt 0.57955163717269897 0.083333335816860199
vt 0.57955163717269897 0.1652018278837204
vt 0.4152018129825592 0.3333333432674408
vt 0.3333333432674408 0.3333333432674408
vt 0.4152018129825592 0.57801270484924316
vt 0.3333333432674408 0.57801270484924316
vt 0 0
vt 0 0.081868492066860199
vt 0.24614422023296356 0
vt 0.24614422023296356 0.081868492066860199
vt 0.66520184278488159 0.3333333432674408
vt 0.58333331346511841 0.3333333432674408
vt 0.66520184278488159 0.57801270484924316
vt 0.58333331346511841 0.57801270484924316
vt 0.66520184278488159 0.57947754859924316
vt 0.58333331346511841 0.57947754859924316
vt 0.66520184278488159 0.70181727409362793
vt 0.58333331346511841 0.70181727409362793
vt 0.66520184278488159 0.82415693998336792
vt 0.58333331346511841 0.82415693998336792
vt 0.58186846971511841 0.3333333432674408
vt 0.5 0.3333333432674408
vt 0.58186846971511841 0.57801270484924316
vt 0.5 0.57801270484924316
vt 0.24853515625 0.57936465740203857
vt 0.1666666716337204 0.57936465740203857
vt 0.24853515625 0.70176082849502563
vt 0.1666666716337204 0.70176082849502563
vt 0.24853515625 0.82415693998336792
vt 0.1666666716337204 0.82415693998336792
vt 0.24853515625 0.3333333432674408
vt 0.1666666716337204 0.3333333432674408
vt 0.24853515625 0.57789981365203857
vt 0.1666666716337204 0.57789981365203857
vt 0.33317828178405762 0.25
vt 0.33317828178405762 0.3318684995174408
vt 0.45637854933738708 0.25
vt 0.45637854933738708 0.3318684995174408
vt 0.57955163717269897 0.25
vt 0.57955163717269897 0.3318684995174408
vt 0.99853515625 0
vt 0.91666668653488159 0
vt 0.99853515625 0.24614422023296356
vt 0.91666668653488159 0.24614422023296356
vt 0.74853515625 0.41281089186668396
vt 0.66666668653488159 0.41281089186668396
vt 0.74853515625 0.53588306903839111
vt 0.66666668653488159 0.53588306903839111
vt 0.74853515625 0.65895509719848633
vt 0.66666668653488159 0.65895509719848633
vt 0.49853515625 0.57947754859924316
vt 0.4576009213924408 0.57947754859924316
vt 0.4166666567325592 0.57947754859924316
vt 0.49853515625 0.82415693998336792
vt 0.4166666567325592 0.82415693998336792
vt 0.49853515625 0.3333333432674408
vt 0.4166666567325592 0.3333333432674408
vt 0.49853515625 0.45567306876182556
vt 0.4166666567325592 0.45567306876182556
vt 0.49853515625 0.57801270484924316
vt 0.4166666567325592 0.57801270484924316
vt 0.081868492066860199 0.57936465740203857
vt 0 0.57936465740203857
vt 0.081868492066860199 0.82415693998336792
vt 0 0.82415693998336792
vt 0.1652018278837204 0.57936465740203857
vt 0.083333335816860199 0.57936465740203857
vt 0.1652018278837204 0.82415693998336792
vt 0.083333335816860199 0.82415693998336792
vt 0.1652018278837204 0.3333333432674408
vt 0.083333335816860199 0.3333333432674408
vt 0.1652018278837204 0.57789981365203857
vt 0.083333335816860199 0.57789981365203857
vt 0.33317828178405762 0.1666666716337204
vt 0.33317828178405762 0.24853515625
vt 0.45637854933738708 0.1666666716337204
vt 0.45637854933738708 0.24853515625
vt 0.57955163717269897 0.1666666716337204
vt 0.57955163717269897 0.24853515625
vt 0 0.25
vt 0 0.3318684995174408
vt 0.12307215481996536 0.25
vt 0.12307215481996536 0.3318684995174408
vt 0.24614422023296356 0.25
vt 0.24614422023296356 0.3318684995174408
vt 0 0.1666666716337204
vt 0 0.24853515625
vt 0.24614422023296356 0.1666666716337204
vt 0.24614422023296356 0.24853515625
vn 0.99823331832885742 0 0.059415422379970551
vn 0.99823331832885742 0 0.059415422379970551
vn 0.99823331832885742 0 0.059415422379970551
vn 0.99823331832885742 0 0.059415422379970551
vn 0 -1 0
vn 0 -1 0
vn 0 -1 0
vn 0 -1 0
vn -0.99823331832885742 0 -0.059415422379970551
vn -0.99823331832885742 0 -0.059415422379970551
vn -0.99823331832885742 0 -0.059415422379970551
vn -0.99823331832885742 0 -0.059415422379970551
vn 0 1 0
vn 0 1 0
vn 0 1 0
vn 0 1 0
vn 0.99823331832885742 0 0.059415422379970551
vn 0.99823331832885742 0 0.059415422379970551
vn 0.99823331832885742 0 0.059415422379970551
vn 0.99823331832885742 0 0.059415422379970551
vn 0.99823331832885742 0 0.059415422379970551
vn 0.99823331832885742 0 0.059415422379970551
vn 0 -1 0
vn 0 -1 0
vn 0 -1 0
vn 0 -1 0
vn 0 -1 0
vn 0 -1 0
vn -0.99823331832885742 0 -0.059415422379970551
vn -0.99823331832885742 0 -0.059415422379970551
vn -0.99823331832885742 0 -0.059415422379970551
vn -0.99823331832885742 0 -0.059415422379970551
vn 0 1 0
vn 0 1 0
vn 0 1 0
vn 0 1 0
vn 0 1 0
vn 0.99823331832885742 0 0.059415422379970551
vn 0.99823331832885742 0 0.059415422379970551
vn 0.99823331832885742 0 0.059415422379970551
vn 0.99823331832885742 0 0.059415422379970551
vn 0 -1 0
vn 0 -1 0
vn 0 -1 0
vn 0 -1 0
vn 0 -1 0
vn 0 -1 0
vn -0.99823331832885742 0 -0.059415422379970551
vn -0.99823331832885742 0 -0.059415422379970551
vn -0.99823331832885742 0 -0.059415422379970551
vn -0.99823331832885742 0 -0.059415422379970551
vn -0.99823331832885742 0 -0.059415422379970551
vn -0.99823331832885742 0 -0.059415422379970551
vn 0 1 0
vn 0 1 0
vn 0 1 0
vn 0 1 0
vn 0.99823331832885742 0 0.059415422379970551
vn 0.99823331832885742 0 0.059415422379970551
vn 0.99823331832885742 0 0.059415422379970551
vn 0.99823331832885742 0 0.059415422379970551
vn 0 -1 0
vn 0 -1 0
vn 0 -1 0
vn 0 -1 0
vn -0.99823331832885742 0 -0.059415422379970551
vn -0.99823331832885742 0 -0.059415422379970551
vn -0.99823331832885742 0 -0.059415422379970551
vn -0.99823331832885742 0 -0.059415422379970551
vn 0 1 0
vn 0 1 0
vn 0 1 0
vn 0 1 0
vn 0.99823331832885742 0 0.059415422379970551
vn 0.99823331832885742 0 0.059415422379970551
vn 0.99823331832885742 0 0.059415422379970551
vn 0.99823331832885742 0 0.059415422379970551
vn 0 -1 0
vn 0 -1 0
vn 0 -1 0
vn 0 -1 0
vn 0 -1 0
vn 0 -1 0
vn -0.99823331832885742 0 -0.059415422379970551
vn -0.99823331832885742 0 -0.059415422379970551
vn -0.99823331832885742 0 -0.059415422379970551
vn -0.99823331832885742 0 -0.059415422379970551
vn 0 1 0
vn 0 1 0
vn 0 1 0
vn 0 1 0
vn 0 1 0
vn 0 1 0
vn 0.99823331832885742 0 0.059415422379970551
vn 0.99823331832885742 0 0.059415422379970551
vn 0.99823331832885742 0 0.059415422379970551
vn 0.99823331832885742 0 0.059415422379970551
vn 0 -1 0
vn 0 -1 0
vn 0 -1 0
vn 0 -1 0
vn 0 -1 0
vn 0 -1 0
vn -0.99823331832885742 0 -0.059415422379970551
vn -0.99823331832885742 0 -0.059415422379970551
vn -0.99823331832885742 0 -0.059415422379970551
vn -0.99823331832885742 0 -0.059415422379970551
vn 0 1 0
vn 0 1 0
vn 0 1 0
vn 0 1 0
vn 0 1 0
vn 0 1 0
vn 0.99823331832885742 0 0.059415422379970551
vn 0.99823331832885742 0 0.059415422379970551
vn 0.99823331832885742 0 0.059415422379970551
vn 0.99823331832885742 0 0.059415422379970551
vn 0.99823331832885742 0 0.059415422379970551
vn 0 -1 0
vn 0 -1 0
vn 0 -1 0
vn 0 -1 0
vn 0 -1 0
vn 0 -1 0
vn -0.99823331832885742 0 -0.059415422379970551
vn -0.99823331832885742 0 -0.059415422379970551
vn -0.99823331832885742 0 -0.059415422379970551
vn -0.99823331832885742 0 -0.059415422379970551
vn 0 1 0
vn 0 1 0
vn 0 1 0
vn 0 1 0
vn 0.99823331832885742 0 0.059415422379970551
vn 0.99823331832885742 0 0.059415422379970551
vn 0.99823331832885742 0 0.059415422379970551
vn 0.99823331832885742 0 0.059415422379970551
vn 0 -1 0
vn 0 -1 0
vn 0 -1 0
vn 0 -1 0
vn 0 -1 0
vn 0 -1 0
vn -0.99823331832885742 0 -0.059415422379970551
vn -0.99823331832885742 0 -0.059415422379970551
vn -0.99823331832885742 0 -0.059415422379970551
vn -0.99823331832885742 0 -0.059415422379970551
vn -0.99823331832885742 0 -0.059415422379970551
vn -0.99823331832885742 0 -0.059415422379970551
vn 0 1 0
vn 0 1 0
vn 0 1 0
vn 0 1 0
f 2/2/2 1/1/1 3/3/3 4/4/4
f 6/6/6 5/5/5 7/7/7 8/8/8
f 10/10/10 9/9/9 11/11/11 12/12/12
f 14/14/14 13/13/13 15/15/15 16/16/16
f 18/18/18 17/17/17 19/19/19 20/20/20
f 21/21/21 22/22/22 20/20/20 19/19/19
f 24/24/24 23/23/23 25/25/25 26/26/26
f 27/27/27 28/28/28 26/26/26 25/25/25
f 30/30/30 29/29/29 31/31/31 32/32/32
f 36/36/36 34/34/34 33/33/33
f 33/33/33 35/35/35 36/36/36
f 34/34/34 36/36/36 37/37/37
f 39/39/39 38/38/38 40/40/40 41/41/41
f 43/43/43 42/42/42 44/44/44 45/45/45
f 46/46/46 47/47/47 45/45/45 44/44/44
f 49/49/49 48/48/48 50/50/50 51/51/51
f 52/52/52 53/53/53 51/51/51 50/50/50
f 55/55/55 54/54/54 56/56/56 57/57/57
f 59/59/59 58/58/58 60/60/60 61/61/61
f 63/63/63 62/62/62 64/64/64 65/65/65
f 67/67/67 66/66/66 68/68/68 69/69/69
f 71/71/71 70/70/70 72/72/72 73/73/73
f 75/75/75 74/74/74 76/76/76 77/77/77
f 79/79/79 78/78/78 80/80/80 81/81/81
f 82/82/82 83/83/83 81/81/81 80/80/80
f 85/85/85 84/84/84 86/86/86 87/87/87
f 89/89/89 88/88/88 90/90/90 91/91/91
f 92/92/92 93/93/93 91/91/91 90/90/90
f 95/95/95 94/94/94 96/96/96 97/97/97
f 99/99/99 98/98/98 100/100/100 101/101/101
f 102/102/102 103/103/103 101/101/101 100/100/100
f 105/105/105 104/104/104 106/106/106 107/107/107
f 109/109/109 108/108/108 110/110/110 111/111/111
f 112/112/112 113/113/113 111/111/111 110/110/110
f 117/117/117 115/115/115 114/114/114
f 116/116/116 115/115/115 118/118/118
f 117/117/117 118/118/118 115/115/115
f 120/120/120 119/119/119 121/121/121 122/122/122
f 123/123/123 124/124/124 122/122/122 121/121/121
f 126/126/126 125/125/125 127/127/127 128/128/128
f 130/130/130 129/129/129 131/131/131 132/132/132
f 134/134/134 133/133/133 135/135/135 136/136/136
f 138/138/138 137/137/137 139/139/139 140/140/140
f 141/141/141 142/142/142 140/140/140 139/139/139
f 144/144/144 143/143/143 145/145/145 146/146/146
f 147/147/147 148/148/148 146/146/146 145/145/145
f 150/150/150 149/149/149 151/151/151 152/152/152
